<svg xmlns="http://www.w3.org/2000/svg" viewBox="0 0 40 40"><path fill-rule="evenodd" d="M36.66 11.16H28.3v1.57l5.16.02.01 1.78-6.76.02v3.2h3.36l.01 3.59h-2l-.01-1.77-1.36-.01-.02 5.75-1.58.03-.02 2.6h-1.58l-.02 1.57-1.77.03-.02 6.56 1.77.03.02 1.8h-3.57l-.03-4.98-1.57-.04-.02-1.54h-1.57l-.02 1.53-1.59.05-.02 1.57-1.77.02-.01 1.57 1.77.02v1.8h-3.56l-.02-6.76-1.16-.04-.05-1.59-1.97-.01-.01-1.56-1.77-.02-.03-1.78-1.57-.02-.03-1.59-1.58-.04V14.36h1.77l.01 3.37 1.57.03.03 1.57 1.77.02.03 1.78h2.98l.02-1.75 1.57-.03.03-1.58 2.56-.02.04-1.59 2.55-.01.03-1.76 1.58-.05.02-10.74 1.6-.04V1.99l13.56-.01.04 1.57 1.56.02.01 7.6zM25.07 6.15l.01-1.79-1.78.01v1.78h1.78z" clip-rule="evenodd"/></svg>
